<?xml version="1.0" encoding="UTF-8"?><svg id="Layer_2" xmlns="http://www.w3.org/2000/svg" xmlns:xlink="http://www.w3.org/1999/xlink" viewBox="0 0 167.75 160.75"><defs><style>.cls-1,.cls-2,.cls-3,.cls-4,.cls-5{fill:#fff;}.cls-2{filter:url(#drop-shadow-4);}.cls-3{filter:url(#drop-shadow-1);}.cls-4{filter:url(#drop-shadow-2);}.cls-5{filter:url(#drop-shadow-3);}</style><filter id="drop-shadow-1" filterUnits="userSpaceOnUse"><feOffset dx="-2" dy="-3"/><feGaussianBlur result="blur" stdDeviation="5"/><feFlood flood-color="#fff" flood-opacity=".5"/><feComposite in2="blur" operator="in"/><feComposite in="SourceGraphic"/></filter><filter id="drop-shadow-2" filterUnits="userSpaceOnUse"><feOffset dx="-2" dy="-3"/><feGaussianBlur result="blur-2" stdDeviation="5"/><feFlood flood-color="#fff" flood-opacity=".5"/><feComposite in2="blur-2" operator="in"/><feComposite in="SourceGraphic"/></filter><filter id="drop-shadow-3" filterUnits="userSpaceOnUse"><feOffset dx="-2" dy="-3"/><feGaussianBlur result="blur-3" stdDeviation="5"/><feFlood flood-color="#fff" flood-opacity=".5"/><feComposite in2="blur-3" operator="in"/><feComposite in="SourceGraphic"/></filter><filter id="drop-shadow-4" filterUnits="userSpaceOnUse"><feOffset dx="-2" dy="-3"/><feGaussianBlur result="blur-4" stdDeviation="5"/><feFlood flood-color="#fff" flood-opacity=".5"/><feComposite in2="blur-4" operator="in"/><feComposite in="SourceGraphic"/></filter></defs><g id="Layer_1-2"><path class="cls-1" d="m159.05,0c-4.64,0-8.4,3.76-8.4,8.4,0,0,0,.01,0,.02l-39.93,10.61c-1.41-2.65-4.2-4.46-7.42-4.46-4.64,0-8.4,3.76-8.4,8.4,0,1.57.44,3.03,1.18,4.28l-32.13,25.47c-1.26-.75-2.72-1.18-4.28-1.18-2.99,0-5.61,1.57-7.1,3.92l-33.66-14.34c.07-.44.12-.88.12-1.34,0-4.64-3.76-8.4-8.4-8.4s-8.4,3.76-8.4,8.4,3.76,8.4,8.4,8.4c2.99,0,5.61-1.57,7.1-3.92l33.66,14.34c-.07.44-.12.88-.12,1.34,0,4.64,3.76,8.4,8.4,8.4s8.4-3.76,8.4-8.4c0-1.86-.61-3.57-1.63-4.96l31.9-25.24c1.39,1.02,3.1,1.63,4.96,1.63,4.64,0,8.4-3.76,8.4-8.4,0-.24-.02-.47-.04-.71l39.66-10.54c1.29,2.99,4.26,5.09,7.72,5.09,4.64,0,8.4-3.76,8.4-8.4s-3.76-8.4-8.4-8.4Z"/><rect class="cls-3" x="1.92" y="64.17" width="17.5" height="69.83" rx="4.44" ry="4.44"/><rect class="cls-4" x="51.08" y="83.33" width="17.5" height="50.67" rx="4.44" ry="4.44"/><rect class="cls-5" x="96.92" y="46.67" width="17.5" height="87.33" rx="4.44" ry="4.44"/><rect class="cls-2" x="150.25" y="30" width="17.5" height="104" rx="4.44" ry="4.44"/><rect class="cls-1" x="74.92" y="68.33" width="17.5" height="167.33" rx="4.44" ry="4.44" transform="translate(-68.33 235.67) rotate(-90)"/></g></svg>